<?xml version="1.0" standalone="no"?>
<svg class="" width="1500px" height="1164px" viewBox="0 0 1500 1164" version="1.1" xmlns="http://www.w3.org/2000/svg" xmlns:xlink="http://www.w3.org/1999/xlink">
    <!-- Generator: Sketch 63.1 (92452) - https://sketch.com -->
    <title>celebration</title>
    <desc>Created by Webpixels.</desc>
    <g id="Page-1" stroke="none" stroke-width="1" fill="none" fill-rule="evenodd">
        <g id="celebration">
            <line x1="398.3" y1="1072.3" x2="1176.4" y2="1072.3" id="Path" stroke="#CED5E5" stroke-width="3" stroke-linecap="round" stroke-linejoin="round"></line>
            <path d="M114.2,443.4 C192.4,279.6 408.6,203.6 522.4,263.1 C613.9,311 576.2,413.6 677.2,496.1 C807.4,602.5 947.2,495.1 1107.5,570.9 C1323.7,673.2 1408.1,1028.9 1330.3,1091.3 C1260.2,1147.6 1117.7,917.8 791.2,878.7 C513,845.4 399.4,986.2 250.3,895.7 C122.4,818.2 34.5,610.5 114.2,443.4 Z" id="Path" fill="#F1F2F7" fill-rule="nonzero"></path>
            <path d="M995.8,413.7 L892,366.3 L832.8,263.5 C832.8,263.5 838.6,243.1 839.1,231.7 C839.6,220.3 829,191 820.5,181 C812,171 813.4,263.9 813.4,263.9 C813.4,263.9 845.6,367.2 852.7,379.5 C859.8,391.8 984.9,453 984.9,453 L995.8,413.7 Z" id="Path" fill="#FFDFD7" fill-rule="nonzero"></path>
            <path d="M1385.6,601.8 L1277.1,553 L1185.9,484.4 L1156.5,512.7 C1156.5,512.7 1253.1,578.5 1265.7,585 C1277.1,590.9 1374.9,618.6 1374.9,618.6 C1374.9,618.6 1398.3,636.3 1415.9,660.2 C1430.6,680.2 1443.1,650 1426.4,629.3 C1406,603.8 1385.6,601.8 1385.6,601.8 Z" id="Path" fill="#FFDFD7" fill-rule="nonzero"></path>
            <polygon id="Path" fill="#FFDFD7" fill-rule="nonzero" points="1079 401.4 1082.3 365.7 1100.8 359.3 1106.7 397.9"></polygon>
            <path d="M1060,276 C1060,276 1049.5,333.3 1052.5,358.2 C1055.5,383.1 1094.8,367.2 1106.2,360.6 C1117.6,354 1141.3,329.1 1133.8,292.8 C1126.3,256.5 1072,247.5 1060,276 Z" id="Path" fill="#FFDFD7" fill-rule="nonzero"></path>
            <path d="M626.2,1163.8 C626.2,1163.8 616,1137.3 542.7,1118.1 C542.7,1118.1 523.1,1127.2 499.2,1116.4 L496.3,1154.7 L626.2,1163.8 Z" id="Path" fill="#37B37F" fill-rule="nonzero"></path>
            <path d="M542.7,1118 L543.8,1084 L501.5,1085.9 L499.2,1116.3 C523,1127.2 542.7,1118 542.7,1118 Z" id="Path" fill="#FFDFD7" fill-rule="nonzero"></path>
            <path d="M944.2,1152 C944.2,1152 954.4,1125.5 1027.7,1106.3 C1027.7,1106.3 1047.3,1115.4 1071.2,1104.6 L1074.1,1142.9 L944.2,1152 Z" id="Path" fill="#283444" fill-rule="nonzero"></path>
            <path d="M1027.7,1106.3 L1026.6,1072.3 L1068.9,1074.2 L1071.2,1104.6 C1047.4,1115.4 1027.7,1106.3 1027.7,1106.3 Z" id="Path" fill="#FFDFD7" fill-rule="nonzero"></path>
            <path d="M1431,936.9 C1431,936.9 1403.3,930.7 1373.4,861.1 C1373.4,861.1 1379.5,840.3 1365.3,818.3 L1402.8,809.7 L1431,936.9 Z" id="Path" fill="#283444" fill-rule="nonzero"></path>
            <path d="M1373.3,861.1 L1339.8,867.3 L1335.4,825.2 L1365.2,818.4 C1379.4,840.4 1373.3,861.1 1373.3,861.1 Z" id="Path" fill="#FFDFD7" fill-rule="nonzero"></path>
            <path d="M277.2,1152 C277.2,1152 290.2,1127.7 257.9,1061.6 C257.9,1061.6 238.8,1053 231.5,1028.5 L201.5,1050.6 L277.2,1152 Z" id="Path" fill="#37B37F" fill-rule="nonzero"></path>
            <path d="M257.8,1061.7 L283.5,1041 L255.3,1011.1 L231.4,1028.7 C238.7,1053 257.8,1061.7 257.8,1061.7 Z" id="Path" fill="#FFDFD7" fill-rule="nonzero"></path>
            <polygon id="Path" fill="#5900CC" fill-rule="nonzero" points="438.3 736 383.8 915.9 283.6 1056.8 239.1 999.8 324.4 872.3 355.4 699.4 438.3 709.3"></polygon>
            <path d="M485.6,715.5 C485.6,715.5 542.3,869.7 550.2,902.6 C558.1,935.5 550.2,1093.1 550.2,1093.1 C550.2,1093.1 506,1093.1 485.6,1086.3 L479.9,904.3 L411.7,765.4 L396,695.1 L485.6,715.5 Z" id="Path" fill="#5900CC" fill-rule="nonzero"></path>
            <path d="M441.7,292.6 C441.7,292.6 460.7,344.5 460,358.4 C459.3,372.3 450.7,383.5 421,378.6 C391.3,373.7 362.5,314 388.3,287.2 C414.2,260.4 435.5,274.6 441.7,292.6 Z" id="Path" fill="#FFDFD7" fill-rule="nonzero"></path>
            <path d="M411.9,405.4 L419.5,374.4 L438.6,378.2 L448.8,416.6 C448.8,416.6 440.5,424.7 424.8,421.9 C409,419 411.9,405.4 411.9,405.4 Z" id="Path" fill="#FFDFD7" fill-rule="nonzero"></path>
            <path d="M411.9,405.4 C442.2,392 460.1,417.3 469.8,441.1 C479.4,464.9 498.7,719.7 498.7,719.7 C498.7,719.7 456.6,722.6 408.6,723.4 C360.6,724.2 342.5,712.1 342.5,712.1 L358.9,548.3 C358.7,548.3 381.6,418.8 411.9,405.4 Z" id="Path" fill="#52CB96" fill-rule="nonzero"></path>
            <path d="M363.5,537.9 C363.5,537.9 338.2,592.7 336.3,604.4 C334.4,616.1 330.6,763.9 330.6,763.9 C330.6,763.9 314.7,795.6 321.2,825.5 C327.6,855.4 352.2,825.5 352.9,805.1 C353.6,784.7 350.6,761.3 350.6,761.3 C350.6,761.3 361.2,637.9 364.8,623.9 C368.4,609.9 405.4,555.4 405.4,555.4 L363.5,537.9 Z" id="Path" fill="#FFDFD7" fill-rule="nonzero"></path>
            <path d="M683.7,201.9 C678.6,223.4 679.8,237.2 679.8,237.2 C679.8,237.2 605.2,347.6 595.2,358 C585.2,368.4 526,397.5 526,397.5 L553.9,433.4 C553.9,433.4 603,398.3 610.5,389.1 C617.9,379.9 694.4,253.3 694.4,253.3 C694.4,253.3 707.2,244.6 715.5,190.2 C715.5,190.2 718.5,160 710.6,157.3 C702.5,154.6 687.5,186 683.7,201.9 Z" id="Path" fill="#FFDFD7" fill-rule="nonzero"></path>
            <polygon id="Path" fill="#52CB96" fill-rule="nonzero" points="388.3 439.2 335.2 534.9 402.4 565.5 430.2 502.3"></polygon>
            <path d="M456.3,417.2 L534.1,378.5 C534.1,378.5 554.8,419.3 569.9,436.9 L479,500.7 L456.3,417.2 Z" id="Path" fill="#52CB96" fill-rule="nonzero"></path>
            <path d="M404.8,370.7 C404.8,370.7 376.5,356.1 367.7,330.4 C358.9,304.7 363.1,276.1 381.7,265.1 C400.2,254 436.3,254 457.1,238.1 C457.1,238.1 464.8,268.3 452.9,284.3 C452.8,284.4 452.7,284.5 452.7,284.6 C447.2,291.9 439.3,297 430.5,299.3 L410.2,304.4 L424.7,337.6 L411.6,344.1 C411.6,344.1 409.7,325.6 400,323 C390.3,320.4 384.4,325.6 388.3,338.9 C392.2,352.2 404.2,356.1 404.2,356.1 L404.8,370.7 Z" id="Path" fill="#283444" fill-rule="nonzero"></path>
            <path d="M1033.8,711.6 C1033.8,711.6 992.4,829.5 983.9,874.9 C975.4,920.3 1015.1,1086.4 1015.1,1086.4 L1079.7,1077.3 L1052.5,890.2 L1108.1,752.4 L1129.6,696.8 L1033.8,711.6 Z" id="Path" fill="#283444" fill-rule="nonzero"></path>
            <path d="M1155.1,700.2 L1199.9,832.9 L1339.4,819.3 L1355.3,889 C1355.3,889 1179.6,919.6 1160.8,916.2 C1142.1,912.8 1097.7,790.9 1091.6,762.6 C1085.4,734.3 1104.7,696.8 1104.7,696.8 L1155.1,700.2 Z" id="Path" fill="#283444" fill-rule="nonzero"></path>
            <path d="M1060,276 C1060,276 1047.1,267 1056.5,252.1 C1066,237.2 1076.2,237.5 1085.3,243.5 C1085.3,243.5 1087.3,236.9 1101.4,232.2 C1116.2,227.3 1125.4,238.7 1125.7,249.5 C1125.7,249.5 1139.1,246.3 1148.5,259 C1160.1,274.6 1149.7,289.8 1149.7,289.8 C1149.7,289.8 1164.6,294.8 1165.9,311.9 C1167.3,329 1155.1,336.2 1148.8,337.6 C1148.8,337.6 1167.7,365.2 1137.5,371.7 C1107.3,378.1 1084.6,367.3 1088.6,345.7 C1088.6,345.7 1088.9,334.8 1096.4,328.3 C1096.4,328.3 1084.7,316.6 1094.8,302.4 C1094.8,302.4 1084.4,294.1 1086,279.7 C1086,279.8 1070.6,284.1 1060,276 Z" id="Path" fill="#FE8163" fill-rule="nonzero"></path>
            <path d="M1022.4,717.2 C1020.7,717.1 1035.4,503.5 1061.5,435.4 C1087.6,367.3 1106.3,395.1 1113.1,407.1 C1119.9,419 1154.5,601.6 1160.70012,704.7 C1160.8,704.7 1099.5,724 1022.4,717.2 Z" id="Path" fill="#FFB3DA" fill-rule="nonzero"></path>
            <path d="M1114,409.1 L1204.2,484.9 C1204.2,484.9 1185.7,503 1173.6,547.3 L1109,476.6 L1114,409.1 Z" id="Path" fill="#FFB3DA" fill-rule="nonzero"></path>
            <path d="M990.4,394.6 C990.4,394.6 977.1,420.4 965.7,462.1 L1053.6,472.9 L1086.5,406 L990.4,394.6 Z" id="Path" fill="#FFB3DA" fill-rule="nonzero"></path>
            <path d="M1134.1,504.1 C1134.1,504.1 1129.4,478.2 1121.1,436.6" id="Path" stroke="#ED85C3" stroke-width="3" stroke-linecap="round" stroke-linejoin="round"></path>
            <line x1="1096.6" y1="780.7" x2="1114.9" y2="735.4" id="Path" stroke="#141B25" stroke-width="3" stroke-linecap="round" stroke-linejoin="round"></line>
            <polyline id="Path" stroke="#8B34FF" stroke-width="3" stroke-linecap="round" stroke-linejoin="round" points="239.1 999.8 283.6 1056.8 383.8 915.9 435.3 748"></polyline>
            <path d="M456.3,417.2 C456.3,417.2 466,427.6 470.3,442.9 C474.6,458.2 481.2,521.3 481.2,521.3 L498.6,719.8" id="Path" stroke="#37B37F" stroke-width="3" stroke-linecap="round" stroke-linejoin="round"></path>
            <polyline id="Path" stroke="#37B37F" stroke-width="3" stroke-linecap="round" stroke-linejoin="round" points="335.2 534.9 402.4 565.5 430.2 502.3"></polyline>
            <line x1="990.4" y1="394.6" x2="1092.9" y2="406.5" id="Path" stroke="#ED85C3" stroke-width="3" stroke-linecap="round" stroke-linejoin="round"></line>
            <rect id="Rectangle" fill="#8B34FF" fill-rule="nonzero" transform="translate(1333.320155, 295.259415) rotate(45.000000) translate(-1333.320155, -295.259415) " x="1327.47021" y="274.759612" width="11.6998878" height="40.9996068"></rect>
            <rect id="Rectangle" fill="#8B34FF" fill-rule="nonzero" transform="translate(1166.062545, 138.454180) rotate(-39.746151) translate(-1166.062545, -138.454180) " x="1160.21243" y="117.953774" width="11.7002315" height="41.0008112"></rect>
            <rect id="Rectangle" fill="#8B34FF" fill-rule="nonzero" transform="translate(231.490180, 151.928400) rotate(-37.589552) translate(-231.490180, -151.928400) " x="225.640187" y="131.428423" width="11.6999869" height="40.9999541"></rect>
            <rect id="Rectangle" fill="#8B34FF" fill-rule="nonzero" transform="translate(553.775925, 138.478650) rotate(-20.952362) translate(-553.775925, -138.478650) " x="547.925788" y="117.978169" width="11.7002748" height="41.0009629"></rect>
            <rect id="Rectangle" fill="#FFB3DA" fill-rule="nonzero" x="103.1" y="168.4" width="11.7" height="41"></rect>
            <rect id="Rectangle" fill="#FFB3DA" fill-rule="nonzero" transform="translate(659.991000, 17.955080) rotate(52.410448) translate(-659.991000, -17.955080) " x="654.141007" y="-2.54489704" width="11.6999869" height="40.9999541"></rect>
            <rect id="Rectangle" fill="#FFB3DA" fill-rule="nonzero" transform="translate(767.799120, 469.669700) rotate(52.410448) translate(-767.799120, -469.669700) " x="761.949127" y="449.169723" width="11.6999869" height="40.9999541"></rect>
            <rect id="Rectangle" fill="#8B34FF" fill-rule="nonzero" transform="translate(165.618190, 373.598455) rotate(-24.473827) translate(-165.618190, -373.598455) " x="159.767873" y="353.097343" width="11.7006349" height="41.0022248"></rect>
            <rect id="Rectangle" fill="#FFB3DA" fill-rule="nonzero" transform="translate(363.386235, 170.719695) rotate(25.486254) translate(-363.386235, -170.719695) " x="357.536161" y="150.219435" width="11.7001485" height="41.0005203"></rect>
            <rect id="Rectangle" fill="#FFB3DA" fill-rule="nonzero" transform="translate(36.676745, 500.694285) rotate(25.486254) translate(-36.676745, -500.694285) " x="30.8266708" y="480.194025" width="11.7001485" height="41.0005203"></rect>
            <rect id="Rectangle" fill="#FFB3DA" fill-rule="nonzero" transform="translate(1449.804550, 225.713050) rotate(-19.087245) translate(-1449.804550, -225.713050) " x="1443.95468" y="205.213522" width="11.6997309" height="40.999057"></rect>
            <rect id="Rectangle" fill="#FFB3DA" fill-rule="nonzero" transform="translate(1479.295450, 478.187050) rotate(-19.087245) translate(-1479.295450, -478.187050) " x="1473.44558" y="457.687522" width="11.6997309" height="40.999057"></rect>
            <rect id="Rectangle" fill="#FFB3DA" fill-rule="nonzero" transform="translate(1105.753949, 34.701977) rotate(2.148641) translate(-1105.753949, -34.701977) " x="1099.90393" y="14.201914" width="11.700036" height="41.0001261"></rect>
            <circle id="Oval" fill="#8B34FF" fill-rule="nonzero" cx="11.6" cy="259.1" r="11"></circle>
            <circle id="Oval" fill="#FFB3DA" fill-rule="nonzero" cx="1270.2" cy="180.3" r="8.6"></circle>
            <circle id="Oval" fill="#FFB3DA" fill-rule="nonzero" cx="802.6" cy="74.6" r="8.6"></circle>
            <circle id="Oval" fill="#FFB3DA" fill-rule="nonzero" cx="1491.4" cy="78.3" r="8.6"></circle>
            <circle id="Oval" fill="#8B34FF" fill-rule="nonzero" cx="1321.1" cy="57.5" r="12.3"></circle>
            <circle id="Oval" fill="#8B34FF" fill-rule="nonzero" cx="995.8" cy="106.3" r="12.3"></circle>
            <circle id="Oval" fill="#8B34FF" fill-rule="nonzero" cx="1295.6" cy="422.5" r="12.3"></circle>
            <circle id="Oval" fill="#8B34FF" fill-rule="nonzero" cx="277" cy="34.7" r="10.5"></circle>
            <circle id="Oval" fill="#8B34FF" fill-rule="nonzero" cx="697.9" cy="86.9" r="10.5"></circle>
            <circle id="Oval" fill="#8B34FF" fill-rule="nonzero" cx="721.3" cy="391.3" r="10.5"></circle>
            <circle id="Oval" fill="#FFB3DA" fill-rule="nonzero" cx="231.4" cy="264.4" r="10.5"></circle>
            <circle id="Oval" fill="#FFB3DA" fill-rule="nonzero" cx="239.1" cy="500.7" r="10.5"></circle>
            <path d="M731.9,878.5 C731.9,878.5 698.1,837.2 687.6,788.5 C677.1,739.8 696.1,735.6 712.6,745.3 C722.5,751.1 748.4,798.4 754.3,907.1 L731.9,878.5 Z" id="Path" fill="#CED5E5" fill-rule="nonzero"></path>
            <path d="M763.9,909 C763.9,909 776.1,857 808.4,819.1 C840.7,781.2 855.5,793.7 857.9,812.7 C859.3,824.1 837.5,873.4 754.7,944.1 L763.9,909 Z" id="Path" fill="#CED5E5" fill-rule="nonzero"></path>
            <path d="M761.8,797.2 C761.8,797.2 771.2,757.4 795.9,728.3 C820.7,699.2 832,708.9 833.8,723.4 C834.9,732.1 818.2,769.9 754.7,824.1 L761.8,797.2 Z" id="Path" fill="#CED5E5" fill-rule="nonzero"></path>
            <path d="M747.2,707.1 C747.2,707.1 737.8,667.3 713.1,638.2 C688.3,609.1 677,618.8 675.2,633.3 C674.1,642 690.8,679.8 754.3,734 L747.2,707.1 Z" id="Path" fill="#CED5E5" fill-rule="nonzero"></path>
            <path d="M774.8,681 C774.8,681 805,653.4 818.4,617.6 C831.7,581.8 817.8,576.6 804.2,582.1 C796.1,585.4 771.2,618.4 754.7,700.2 L774.8,681 Z" id="Path" fill="#CED5E5" fill-rule="nonzero"></path>
            <path d="M773.6,1096.2 L734.8,1096.2 C704.9,1096.2 680.6,1072 680.6,1042 L680.6,982.7 L827.700308,982.7 L827.700308,1042 C827.8,1072 803.5,1096.2 773.6,1096.2 Z" id="Path" fill="#F1F2F7" fill-rule="nonzero"></path>
            <line x1="754.2" y1="982.8" x2="754.2" y2="674.1" id="Path" stroke="#CED5E5" stroke-width="3" stroke-linecap="round" stroke-linejoin="round"></line>
        </g>
    </g>
</svg>